<mxfile host="app.diagrams.net" modified="2023-08-26T16:13:21.932Z" agent="Mozilla/5.0 (Windows NT 10.0; Win64; x64) AppleWebKit/537.36 (KHTML, like Gecko) Chrome/116.0.0.0 Safari/537.36" etag="zkFiOZrJgLpEym0LavUA" version="21.6.9" type="google">
  <diagram name="Page-1" id="7ocbyj-iKNSs7FNsPA8c">
    <mxGraphModel grid="1" page="1" gridSize="10" guides="1" tooltips="1" connect="1" arrows="1" fold="1" pageScale="1" pageWidth="900" pageHeight="600" math="0" shadow="0">
      <root>
        <mxCell id="0" />
        <mxCell id="1" parent="0" />
        <mxCell id="3Fvl6yrIxOhJhOUr5pwb-10" value="" style="whiteSpace=wrap;html=1;aspect=fixed;" vertex="1" parent="1">
          <mxGeometry x="200" y="40" width="490" height="490" as="geometry" />
        </mxCell>
        <mxCell id="3Fvl6yrIxOhJhOUr5pwb-35" style="edgeStyle=orthogonalEdgeStyle;rounded=0;orthogonalLoop=1;jettySize=auto;html=1;exitX=1;exitY=0.3333333333333333;exitDx=0;exitDy=0;exitPerimeter=0;entryX=0;entryY=0.5;entryDx=0;entryDy=0;fillColor=#d5e8d4;strokeColor=#82b366;" edge="1" parent="1" source="3Fvl6yrIxOhJhOUr5pwb-1" target="3Fvl6yrIxOhJhOUr5pwb-7">
          <mxGeometry relative="1" as="geometry" />
        </mxCell>
        <mxCell id="3Fvl6yrIxOhJhOUr5pwb-36" style="edgeStyle=orthogonalEdgeStyle;rounded=0;orthogonalLoop=1;jettySize=auto;html=1;exitX=1;exitY=0.3333333333333333;exitDx=0;exitDy=0;exitPerimeter=0;entryX=0;entryY=0.5;entryDx=0;entryDy=0;fillColor=#d5e8d4;strokeColor=#82b366;" edge="1" parent="1" source="3Fvl6yrIxOhJhOUr5pwb-1" target="3Fvl6yrIxOhJhOUr5pwb-22">
          <mxGeometry relative="1" as="geometry">
            <Array as="points">
              <mxPoint x="180" y="187" />
              <mxPoint x="180" y="280" />
            </Array>
          </mxGeometry>
        </mxCell>
        <mxCell id="3Fvl6yrIxOhJhOUr5pwb-37" style="edgeStyle=orthogonalEdgeStyle;rounded=0;orthogonalLoop=1;jettySize=auto;html=1;exitX=1;exitY=0.3333333333333333;exitDx=0;exitDy=0;exitPerimeter=0;entryX=0;entryY=0.5;entryDx=0;entryDy=0;fillColor=#d5e8d4;strokeColor=#82b366;" edge="1" parent="1" source="3Fvl6yrIxOhJhOUr5pwb-1" target="3Fvl6yrIxOhJhOUr5pwb-28">
          <mxGeometry relative="1" as="geometry" />
        </mxCell>
        <mxCell id="3Fvl6yrIxOhJhOUr5pwb-38" style="edgeStyle=orthogonalEdgeStyle;rounded=0;orthogonalLoop=1;jettySize=auto;html=1;exitX=1;exitY=0.3333333333333333;exitDx=0;exitDy=0;exitPerimeter=0;entryX=0;entryY=0.5;entryDx=0;entryDy=0;fillColor=#d5e8d4;strokeColor=#82b366;" edge="1" parent="1" source="3Fvl6yrIxOhJhOUr5pwb-1" target="3Fvl6yrIxOhJhOUr5pwb-31">
          <mxGeometry relative="1" as="geometry" />
        </mxCell>
        <mxCell id="3Fvl6yrIxOhJhOUr5pwb-51" style="edgeStyle=orthogonalEdgeStyle;rounded=0;orthogonalLoop=1;jettySize=auto;html=1;exitX=1;exitY=0.3333333333333333;exitDx=0;exitDy=0;exitPerimeter=0;entryX=0;entryY=0.5;entryDx=0;entryDy=0;fillColor=#d5e8d4;strokeColor=#82b366;" edge="1" parent="1" source="3Fvl6yrIxOhJhOUr5pwb-1" target="3Fvl6yrIxOhJhOUr5pwb-49">
          <mxGeometry relative="1" as="geometry" />
        </mxCell>
        <mxCell id="3Fvl6yrIxOhJhOUr5pwb-55" style="edgeStyle=orthogonalEdgeStyle;rounded=0;orthogonalLoop=1;jettySize=auto;html=1;exitX=1;exitY=0.3333333333333333;exitDx=0;exitDy=0;exitPerimeter=0;entryX=0;entryY=0.5;entryDx=0;entryDy=0;fillColor=#d5e8d4;strokeColor=#82b366;" edge="1" parent="1" source="3Fvl6yrIxOhJhOUr5pwb-1" target="3Fvl6yrIxOhJhOUr5pwb-54">
          <mxGeometry relative="1" as="geometry" />
        </mxCell>
        <mxCell id="3Fvl6yrIxOhJhOUr5pwb-59" style="edgeStyle=orthogonalEdgeStyle;rounded=0;orthogonalLoop=1;jettySize=auto;html=1;exitX=1;exitY=0.3333333333333333;exitDx=0;exitDy=0;exitPerimeter=0;entryX=0;entryY=0.5;entryDx=0;entryDy=0;fillColor=#d5e8d4;strokeColor=#82b366;" edge="1" parent="1" source="3Fvl6yrIxOhJhOUr5pwb-1" target="3Fvl6yrIxOhJhOUr5pwb-57">
          <mxGeometry relative="1" as="geometry" />
        </mxCell>
        <mxCell id="3Fvl6yrIxOhJhOUr5pwb-1" value="Profissional procurando vagas" style="shape=umlActor;verticalLabelPosition=bottom;verticalAlign=top;html=1;outlineConnect=0;fillColor=#f8cecc;strokeColor=#b85450;" vertex="1" parent="1">
          <mxGeometry x="80" y="160" width="40" height="80" as="geometry" />
        </mxCell>
        <mxCell id="3Fvl6yrIxOhJhOUr5pwb-44" style="edgeStyle=orthogonalEdgeStyle;rounded=0;orthogonalLoop=1;jettySize=auto;html=1;exitX=0;exitY=0.3333333333333333;exitDx=0;exitDy=0;exitPerimeter=0;entryX=1;entryY=0.5;entryDx=0;entryDy=0;fillColor=#e1d5e7;strokeColor=#9673a6;" edge="1" parent="1" source="3Fvl6yrIxOhJhOUr5pwb-2" target="3Fvl6yrIxOhJhOUr5pwb-14">
          <mxGeometry relative="1" as="geometry" />
        </mxCell>
        <mxCell id="3Fvl6yrIxOhJhOUr5pwb-45" style="edgeStyle=orthogonalEdgeStyle;rounded=0;orthogonalLoop=1;jettySize=auto;html=1;exitX=0;exitY=0.3333333333333333;exitDx=0;exitDy=0;exitPerimeter=0;entryX=1;entryY=0.5;entryDx=0;entryDy=0;fillColor=#e1d5e7;strokeColor=#9673a6;" edge="1" parent="1" source="3Fvl6yrIxOhJhOUr5pwb-2" target="3Fvl6yrIxOhJhOUr5pwb-17">
          <mxGeometry relative="1" as="geometry" />
        </mxCell>
        <mxCell id="3Fvl6yrIxOhJhOUr5pwb-46" style="edgeStyle=orthogonalEdgeStyle;rounded=0;orthogonalLoop=1;jettySize=auto;html=1;exitX=0;exitY=0.3333333333333333;exitDx=0;exitDy=0;exitPerimeter=0;entryX=1;entryY=0.5;entryDx=0;entryDy=0;fillColor=#e1d5e7;strokeColor=#9673a6;" edge="1" parent="1" source="3Fvl6yrIxOhJhOUr5pwb-2" target="3Fvl6yrIxOhJhOUr5pwb-25">
          <mxGeometry relative="1" as="geometry" />
        </mxCell>
        <mxCell id="3Fvl6yrIxOhJhOUr5pwb-53" style="edgeStyle=orthogonalEdgeStyle;rounded=0;orthogonalLoop=1;jettySize=auto;html=1;exitX=0;exitY=0.3333333333333333;exitDx=0;exitDy=0;exitPerimeter=0;entryX=1;entryY=0.5;entryDx=0;entryDy=0;fillColor=#e1d5e7;strokeColor=#9673a6;" edge="1" parent="1" source="3Fvl6yrIxOhJhOUr5pwb-2" target="3Fvl6yrIxOhJhOUr5pwb-52">
          <mxGeometry relative="1" as="geometry" />
        </mxCell>
        <mxCell id="3Fvl6yrIxOhJhOUr5pwb-2" value="EmpresÃ¡rio procurando profissionais" style="shape=umlActor;verticalLabelPosition=bottom;verticalAlign=top;html=1;outlineConnect=0;fillColor=#dae8fc;strokeColor=#6c8ebf;" vertex="1" parent="1">
          <mxGeometry x="760" y="160" width="40" height="80" as="geometry" />
        </mxCell>
        <mxCell id="3Fvl6yrIxOhJhOUr5pwb-5" value="" style="whiteSpace=wrap;html=1;aspect=fixed;" vertex="1" parent="1">
          <mxGeometry x="350" y="130" width="90" height="90" as="geometry" />
        </mxCell>
        <mxCell id="3Fvl6yrIxOhJhOUr5pwb-3" value="Detalhes do profissional" style="rounded=0;whiteSpace=wrap;html=1;" vertex="1" parent="1">
          <mxGeometry x="355" y="150" width="80" height="40" as="geometry" />
        </mxCell>
        <mxCell id="3Fvl6yrIxOhJhOUr5pwb-6" value="Database do Profissional" style="text;html=1;strokeColor=none;fillColor=none;align=center;verticalAlign=middle;whiteSpace=wrap;rounded=0;" vertex="1" parent="1">
          <mxGeometry x="350" y="90" width="90" height="30" as="geometry" />
        </mxCell>
        <mxCell id="3Fvl6yrIxOhJhOUr5pwb-42" style="edgeStyle=orthogonalEdgeStyle;rounded=0;orthogonalLoop=1;jettySize=auto;html=1;exitX=1;exitY=0.5;exitDx=0;exitDy=0;entryX=0;entryY=0.5;entryDx=0;entryDy=0;fillColor=#d5e8d4;strokeColor=#82b366;" edge="1" parent="1" source="3Fvl6yrIxOhJhOUr5pwb-7" target="3Fvl6yrIxOhJhOUr5pwb-3">
          <mxGeometry relative="1" as="geometry" />
        </mxCell>
        <mxCell id="3Fvl6yrIxOhJhOUr5pwb-7" value="Cadastro" style="rounded=0;whiteSpace=wrap;html=1;" vertex="1" parent="1">
          <mxGeometry x="240" y="120" width="80" height="40" as="geometry" />
        </mxCell>
        <mxCell id="3Fvl6yrIxOhJhOUr5pwb-11" value="" style="whiteSpace=wrap;html=1;aspect=fixed;" vertex="1" parent="1">
          <mxGeometry x="470" y="130" width="110" height="110" as="geometry" />
        </mxCell>
        <mxCell id="3Fvl6yrIxOhJhOUr5pwb-12" value="Detalhes da empresa" style="rounded=0;whiteSpace=wrap;html=1;" vertex="1" parent="1">
          <mxGeometry x="485" y="140" width="80" height="40" as="geometry" />
        </mxCell>
        <mxCell id="3Fvl6yrIxOhJhOUr5pwb-13" value="Database da Empresa" style="text;html=1;strokeColor=none;fillColor=none;align=center;verticalAlign=middle;whiteSpace=wrap;rounded=0;" vertex="1" parent="1">
          <mxGeometry x="480" y="90" width="90" height="30" as="geometry" />
        </mxCell>
        <mxCell id="3Fvl6yrIxOhJhOUr5pwb-47" style="edgeStyle=orthogonalEdgeStyle;rounded=0;orthogonalLoop=1;jettySize=auto;html=1;exitX=0;exitY=0.5;exitDx=0;exitDy=0;entryX=1;entryY=0.5;entryDx=0;entryDy=0;fillColor=#e1d5e7;strokeColor=#9673a6;" edge="1" parent="1" source="3Fvl6yrIxOhJhOUr5pwb-14" target="3Fvl6yrIxOhJhOUr5pwb-12">
          <mxGeometry relative="1" as="geometry">
            <Array as="points">
              <mxPoint x="580" y="140" />
              <mxPoint x="580" y="160" />
            </Array>
          </mxGeometry>
        </mxCell>
        <mxCell id="3Fvl6yrIxOhJhOUr5pwb-14" value="Registro" style="rounded=0;whiteSpace=wrap;html=1;" vertex="1" parent="1">
          <mxGeometry x="590" y="120" width="80" height="40" as="geometry" />
        </mxCell>
        <mxCell id="3Fvl6yrIxOhJhOUr5pwb-48" style="edgeStyle=orthogonalEdgeStyle;rounded=0;orthogonalLoop=1;jettySize=auto;html=1;exitX=0;exitY=0.5;exitDx=0;exitDy=0;entryX=1;entryY=0.5;entryDx=0;entryDy=0;fillColor=#e1d5e7;strokeColor=#9673a6;" edge="1" parent="1" source="3Fvl6yrIxOhJhOUr5pwb-17" target="3Fvl6yrIxOhJhOUr5pwb-18">
          <mxGeometry relative="1" as="geometry">
            <Array as="points">
              <mxPoint x="580" y="200" />
              <mxPoint x="580" y="210" />
            </Array>
          </mxGeometry>
        </mxCell>
        <mxCell id="3Fvl6yrIxOhJhOUr5pwb-17" value="Abra vagas" style="rounded=0;whiteSpace=wrap;html=1;" vertex="1" parent="1">
          <mxGeometry x="590" y="180" width="80" height="40" as="geometry" />
        </mxCell>
        <mxCell id="3Fvl6yrIxOhJhOUr5pwb-18" value="Vagas abertas" style="rounded=0;whiteSpace=wrap;html=1;" vertex="1" parent="1">
          <mxGeometry x="485" y="190" width="80" height="40" as="geometry" />
        </mxCell>
        <mxCell id="3Fvl6yrIxOhJhOUr5pwb-21" value="Sistema de Vagas" style="text;html=1;strokeColor=none;fillColor=none;align=center;verticalAlign=middle;whiteSpace=wrap;rounded=0;" vertex="1" parent="1">
          <mxGeometry x="405" y="5" width="90" height="30" as="geometry" />
        </mxCell>
        <mxCell id="3Fvl6yrIxOhJhOUr5pwb-39" style="edgeStyle=orthogonalEdgeStyle;rounded=0;orthogonalLoop=1;jettySize=auto;html=1;exitX=1;exitY=0.5;exitDx=0;exitDy=0;entryX=0;entryY=0.5;entryDx=0;entryDy=0;fillColor=#d5e8d4;strokeColor=#82b366;" edge="1" parent="1" source="3Fvl6yrIxOhJhOUr5pwb-22" target="3Fvl6yrIxOhJhOUr5pwb-18">
          <mxGeometry relative="1" as="geometry">
            <Array as="points">
              <mxPoint x="402" y="280" />
              <mxPoint x="402" y="240" />
              <mxPoint x="470" y="240" />
              <mxPoint x="470" y="210" />
            </Array>
          </mxGeometry>
        </mxCell>
        <mxCell id="3Fvl6yrIxOhJhOUr5pwb-22" value="Busque vagas" style="rounded=0;whiteSpace=wrap;html=1;" vertex="1" parent="1">
          <mxGeometry x="240" y="260" width="80" height="40" as="geometry" />
        </mxCell>
        <mxCell id="3Fvl6yrIxOhJhOUr5pwb-43" style="edgeStyle=orthogonalEdgeStyle;rounded=0;orthogonalLoop=1;jettySize=auto;html=1;exitX=0;exitY=0.5;exitDx=0;exitDy=0;entryX=1;entryY=0.5;entryDx=0;entryDy=0;fillColor=#e1d5e7;strokeColor=#9673a6;" edge="1" parent="1" source="3Fvl6yrIxOhJhOUr5pwb-25" target="3Fvl6yrIxOhJhOUr5pwb-3">
          <mxGeometry relative="1" as="geometry">
            <Array as="points">
              <mxPoint x="460" y="300" />
              <mxPoint x="460" y="170" />
            </Array>
          </mxGeometry>
        </mxCell>
        <mxCell id="3Fvl6yrIxOhJhOUr5pwb-25" value="Busque profissionais" style="rounded=0;whiteSpace=wrap;html=1;" vertex="1" parent="1">
          <mxGeometry x="590" y="280" width="80" height="40" as="geometry" />
        </mxCell>
        <mxCell id="3Fvl6yrIxOhJhOUr5pwb-40" style="edgeStyle=orthogonalEdgeStyle;rounded=0;orthogonalLoop=1;jettySize=auto;html=1;exitX=1;exitY=0.5;exitDx=0;exitDy=0;entryX=0;entryY=0.5;entryDx=0;entryDy=0;fillColor=#d5e8d4;strokeColor=#82b366;" edge="1" parent="1" source="3Fvl6yrIxOhJhOUr5pwb-28" target="3Fvl6yrIxOhJhOUr5pwb-18">
          <mxGeometry relative="1" as="geometry">
            <Array as="points">
              <mxPoint x="402" y="330" />
              <mxPoint x="402" y="240" />
              <mxPoint x="470" y="240" />
              <mxPoint x="470" y="210" />
            </Array>
          </mxGeometry>
        </mxCell>
        <mxCell id="3Fvl6yrIxOhJhOUr5pwb-28" value="Se candidate p/ vagas abertas" style="rounded=0;whiteSpace=wrap;html=1;" vertex="1" parent="1">
          <mxGeometry x="240" y="310" width="80" height="40" as="geometry" />
        </mxCell>
        <mxCell id="3Fvl6yrIxOhJhOUr5pwb-41" style="edgeStyle=orthogonalEdgeStyle;rounded=0;orthogonalLoop=1;jettySize=auto;html=1;exitX=1;exitY=0.5;exitDx=0;exitDy=0;entryX=0;entryY=0.5;entryDx=0;entryDy=0;fillColor=#d5e8d4;strokeColor=#82b366;" edge="1" parent="1" source="3Fvl6yrIxOhJhOUr5pwb-31" target="3Fvl6yrIxOhJhOUr5pwb-18">
          <mxGeometry relative="1" as="geometry">
            <Array as="points">
              <mxPoint x="402" y="380" />
              <mxPoint x="402" y="240" />
              <mxPoint x="470" y="240" />
              <mxPoint x="470" y="210" />
            </Array>
          </mxGeometry>
        </mxCell>
        <mxCell id="3Fvl6yrIxOhJhOUr5pwb-31" value="Compartilhe vagas abertas" style="rounded=0;whiteSpace=wrap;html=1;" vertex="1" parent="1">
          <mxGeometry x="240" y="360" width="80" height="40" as="geometry" />
        </mxCell>
        <mxCell id="3Fvl6yrIxOhJhOUr5pwb-50" style="edgeStyle=orthogonalEdgeStyle;rounded=0;orthogonalLoop=1;jettySize=auto;html=1;exitX=1;exitY=0.5;exitDx=0;exitDy=0;entryX=0;entryY=0.5;entryDx=0;entryDy=0;fillColor=#d5e8d4;strokeColor=#82b366;" edge="1" parent="1" source="3Fvl6yrIxOhJhOUr5pwb-49" target="3Fvl6yrIxOhJhOUr5pwb-18">
          <mxGeometry relative="1" as="geometry">
            <Array as="points">
              <mxPoint x="402" y="440" />
              <mxPoint x="402" y="240" />
              <mxPoint x="470" y="240" />
              <mxPoint x="470" y="210" />
            </Array>
          </mxGeometry>
        </mxCell>
        <mxCell id="3Fvl6yrIxOhJhOUr5pwb-49" value="Acompanhe Status da vaga/&lt;br&gt;candidatura" style="rounded=0;whiteSpace=wrap;html=1;" vertex="1" parent="1">
          <mxGeometry x="240" y="410" width="80" height="60" as="geometry" />
        </mxCell>
        <mxCell id="3Fvl6yrIxOhJhOUr5pwb-52" value="Gerencia vagas" style="rounded=0;whiteSpace=wrap;html=1;" vertex="1" parent="1">
          <mxGeometry x="590" y="230" width="80" height="40" as="geometry" />
        </mxCell>
        <mxCell id="3Fvl6yrIxOhJhOUr5pwb-56" style="edgeStyle=orthogonalEdgeStyle;rounded=0;orthogonalLoop=1;jettySize=auto;html=1;exitX=1;exitY=0.5;exitDx=0;exitDy=0;entryX=0;entryY=0.5;entryDx=0;entryDy=0;fillColor=#d5e8d4;strokeColor=#82b366;" edge="1" parent="1" source="3Fvl6yrIxOhJhOUr5pwb-54" target="3Fvl6yrIxOhJhOUr5pwb-3">
          <mxGeometry relative="1" as="geometry" />
        </mxCell>
        <mxCell id="3Fvl6yrIxOhJhOUr5pwb-54" value="Gerencie seu perfil" style="rounded=0;whiteSpace=wrap;html=1;" vertex="1" parent="1">
          <mxGeometry x="240" y="170" width="80" height="40" as="geometry" />
        </mxCell>
        <mxCell id="3Fvl6yrIxOhJhOUr5pwb-60" style="edgeStyle=orthogonalEdgeStyle;rounded=0;orthogonalLoop=1;jettySize=auto;html=1;exitX=1;exitY=0.5;exitDx=0;exitDy=0;entryX=0;entryY=0.5;entryDx=0;entryDy=0;fillColor=#d5e8d4;strokeColor=#82b366;" edge="1" parent="1" source="3Fvl6yrIxOhJhOUr5pwb-57" target="3Fvl6yrIxOhJhOUr5pwb-12">
          <mxGeometry relative="1" as="geometry">
            <Array as="points">
              <mxPoint x="450" y="235" />
              <mxPoint x="450" y="160" />
            </Array>
          </mxGeometry>
        </mxCell>
        <mxCell id="3Fvl6yrIxOhJhOUr5pwb-57" value="Veja empresas" style="rounded=0;whiteSpace=wrap;html=1;" vertex="1" parent="1">
          <mxGeometry x="240" y="215" width="80" height="40" as="geometry" />
        </mxCell>
      </root>
    </mxGraphModel>
  </diagram>
</mxfile>
